<svg width="46" height="58" viewBox="0 0 46 58" fill="none" xmlns="http://www.w3.org/2000/svg">
<path d="M14.2501 36.0416H31.7501C37.5601 36.0416 42.2501 40.7595 42.2501 46.6041V53.6458H3.75009V46.6041C3.75009 40.7595 8.44009 36.0416 14.2501 36.0416ZM14.2501 14.9166H31.7501V23.7187C31.7501 26.0532 30.8282 28.292 29.1873 29.9427C27.5463 31.5934 25.3207 32.5208 23.0001 32.5208C20.6794 32.5208 18.4539 31.5934 16.8129 29.9427C15.172 28.292 14.2501 26.0532 14.2501 23.7187V14.9166ZM31.7501 14.9166C33.6751 14.9166 35.2501 16.501 35.2501 18.4375C35.2501 20.3739 33.6751 21.9583 31.7501 21.9583V14.9166ZM14.2501 21.9583C12.3251 21.9583 10.7501 20.3739 10.7501 18.4375C10.7501 16.501 12.3251 14.9166 14.2501 14.9166V21.9583Z" fill="white"/>
<path d="M14.67 15.3391H12.92C10.295 13.1561 10.75 9.81135 10.75 6.99468C10.75 4.17801 12.5 6.07926 14.25 6.07926C16 6.07926 17.75 7.83968 17.75 7.83968C14.67 7.83968 14.25 4.31885 14.25 4.31885H24.75C28.6 4.31885 31.75 7.4876 31.75 11.3605H33.5C33.5 11.3605 34.375 14.0011 33.08 15.7616L14.705 15.3391H14.67Z" fill="white"/>
</svg>
