<svg width="87" height="88" viewBox="0 0 87 88" fill="none" xmlns="http://www.w3.org/2000/svg">
<circle cx="43.5" cy="44" r="43.0483" fill="white" fill-opacity="0.23"/>
<path d="M24.7267 24.8693H35.2403L38.6285 33.3412L33.1844 36.9707C32.8638 37.1846 32.601 37.4743 32.4192 37.8142C32.2374 38.154 32.1424 38.5335 32.1424 38.9189C32.1495 39.139 32.1424 38.9213 32.1424 38.9213V38.9704C32.1436 39.0752 32.1483 39.1798 32.1565 39.2842C32.169 39.4778 32.1963 39.7354 32.2384 40.0569C32.3298 40.6892 32.5054 41.5602 32.8472 42.5859C33.5357 44.6465 34.8844 47.3136 37.5116 49.9408C40.1388 52.5681 42.8059 53.9169 44.8641 54.6053C45.892 54.9472 46.7608 55.1205 47.3977 55.2141C47.7569 55.2663 48.1189 55.2976 48.4818 55.3078L48.5122 55.3101H48.531C48.531 55.3101 48.7932 55.2961 48.5333 55.3101C48.968 55.3099 49.3941 55.1887 49.7639 54.96C50.1336 54.7313 50.4323 54.4041 50.6267 54.0152L52.1955 50.8775L62.5826 52.6103V62.726C57.6396 63.4402 44.2881 64.145 33.7979 53.6546C23.3077 43.1642 24.0102 29.8101 24.7267 24.8693ZM36.9965 40.0569L41.2277 37.2376C42.1215 36.6414 42.7832 35.7559 43.1017 34.7297C43.4201 33.7035 43.3761 32.599 42.9768 31.6014L39.5886 23.1295C39.2409 22.2605 38.6408 21.5157 37.8657 20.9911C37.0907 20.4664 36.1762 20.186 35.2403 20.1861H24.605C22.4765 20.1861 20.4745 21.6636 20.1256 23.9725C19.3295 29.2223 18.25 44.7284 30.487 56.9657C42.7239 69.2029 58.2297 68.1211 63.4794 67.3272C65.7882 66.976 67.2657 64.9763 67.2657 62.8478V52.6103C67.2659 51.5017 66.8727 50.429 66.1563 49.583C65.4398 48.737 64.4465 48.1727 63.353 47.9903L52.9659 46.2598C51.978 46.0949 50.9632 46.2511 50.0706 46.7054C49.178 47.1598 48.4545 47.8883 48.0065 48.7841L47.1963 50.4068C46.91 50.3356 46.6264 50.2536 46.3463 50.161C44.8945 49.6786 42.8785 48.6857 40.8226 46.6298C38.7667 44.5739 37.7739 42.5578 37.2915 41.1036C37.1778 40.7595 37.0801 40.4102 36.9988 40.0569H36.9965Z" fill="#FF0000" fill-opacity="0.5"/>
</svg>
