<svg width="38" height="38" viewBox="0 0 38 38" fill="none" xmlns="http://www.w3.org/2000/svg">
<path d="M5.25867 32.4733V29.4143H8.31767V4.94232H23.6127V6.47182H29.7307V29.4143H32.7897V32.4733H26.6717V9.53083H23.6127V32.4733H5.25867ZM17.4947 20.2373C17.928 20.2373 18.2915 20.0905 18.5852 19.7968C18.8789 19.5032 19.0252 19.1402 19.0242 18.7078C19.0242 18.2745 18.8773 17.911 18.5837 17.6173C18.29 17.3236 17.927 17.1773 17.4947 17.1783C17.0613 17.1783 16.6978 17.3252 16.4041 17.6188C16.1105 17.9125 15.9642 18.2755 15.9652 18.7078C15.9652 19.1412 16.112 19.5047 16.4057 19.7984C16.6993 20.092 17.0623 20.2384 17.4947 20.2373Z" fill="white"/>
</svg>
