<svg width="26" height="26" viewBox="0 0 26 26" fill="none" xmlns="http://www.w3.org/2000/svg">
<path d="M3.75132 0.784893L12.5819 9.61426L21.3663 0.82985C21.5603 0.623965 21.7934 0.458307 22.0537 0.344716C22.3129 0.229941 22.5921 0.169603 22.8761 0.167236C23.4831 0.167236 24.0641 0.407446 24.4936 0.836963C24.9231 1.2653 25.1633 1.84742 25.1633 2.45443C25.1692 2.73485 25.1172 3.01294 25.0107 3.27325C24.9042 3.53238 24.7468 3.76783 24.5457 3.96425L15.6477 12.7487L24.5457 21.6478C24.9231 22.0158 25.1444 22.5163 25.1633 23.0429C25.1633 23.6499 24.9231 24.2308 24.4936 24.6604C24.0641 25.0899 23.4831 25.3301 22.8761 25.3301C22.5838 25.3431 22.294 25.2934 22.0218 25.1881C21.7497 25.0816 21.5036 24.9195 21.2977 24.7124L12.5819 15.8831L3.775 24.69C3.58095 24.8899 3.3502 25.0485 3.09462 25.1585C2.84023 25.2686 2.56571 25.3277 2.28764 25.3301C1.68064 25.3301 1.09848 25.0899 0.670145 24.6604C0.240627 24.2308 0.000453537 23.6499 0.000453537 23.0429C-0.00546268 22.7625 0.0465613 22.4832 0.153053 22.2241C0.259545 21.9649 0.416923 21.7295 0.618074 21.5331L9.51609 12.7487L0.618074 3.84949C0.24062 3.4815 0.0193854 2.98097 0.000453537 2.45443C0.000453537 1.84742 0.240627 1.2653 0.670145 0.836963C1.09848 0.407446 1.68064 0.167236 2.28764 0.167236C2.83667 0.173153 3.36321 0.395606 3.75132 0.784893Z" fill="#ECF0FF"/>
</svg>
