<svg width="27" height="25" viewBox="0 0 27 25" fill="none" xmlns="http://www.w3.org/2000/svg">
<g clip-path="url(#clip0_111_1797)">
<path d="M18.5542 4.74173L22.6459 8.81375C22.8183 8.9853 22.8183 9.2652 22.6459 9.43675L12.7387 19.2963L8.52908 19.7613C7.96659 19.8245 7.49028 19.3505 7.55379 18.7907L8.02102 14.6013L17.9282 4.74173C18.1006 4.57018 18.3818 4.57018 18.5542 4.74173ZM25.9029 3.70793L23.6892 1.50488C22.9997 0.818686 21.8793 0.818686 21.1852 1.50488L19.5794 3.10299C19.407 3.27454 19.407 3.55443 19.5794 3.72598L23.6711 7.79801C23.8435 7.96955 24.1247 7.96955 24.2971 7.79801L25.9029 6.19989C26.5924 5.50919 26.5924 4.39412 25.9029 3.70793ZM17.7104 16.6147V21.2104H3.19446V6.7642H13.6188C13.7639 6.7642 13.9 6.70551 14.0043 6.60619L15.8188 4.80042C16.1636 4.45732 15.9186 3.87496 15.4332 3.87496H2.46866C1.26655 3.87496 0.29126 4.84556 0.29126 6.04189V21.9327C0.29126 23.129 1.26655 24.0996 2.46866 24.0996H18.4362C19.6383 24.0996 20.6136 23.129 20.6136 21.9327V14.8089C20.6136 14.3259 20.0285 14.0866 19.6837 14.4252L17.8692 16.231C17.7694 16.3348 17.7104 16.4702 17.7104 16.6147Z" fill="#CFCFCF"/>
</g>
<defs>
<clipPath id="clip0_111_1797">
<rect width="26.1288" height="23.1139" fill="white" transform="translate(0.29126 0.985596)"/>
</clipPath>
</defs>
</svg>
