<svg width="87" height="92" viewBox="0 0 87 92" fill="none" xmlns="http://www.w3.org/2000/svg">
<path fill-rule="evenodd" clip-rule="evenodd" d="M86.479 46.8761C86.479 43.6279 86.1968 40.5034 85.6759 37.5024H44.1203V55.2346H67.8679C66.8442 60.963 63.7333 65.8147 59.0598 69.0666V80.5647H73.3229C81.6644 72.5846 86.479 60.8393 86.479 46.8761Z" fill="#4285F4"/>
<path fill-rule="evenodd" clip-rule="evenodd" d="M44.1203 91.6692C56.0357 91.6692 66.0195 87.5667 73.3229 80.5683L59.0634 69.0703C55.1133 71.8202 50.0563 73.4424 44.1203 73.4424C32.6281 73.4424 22.9048 65.3799 19.4322 54.545H4.69165V66.4215C11.9516 81.4 26.873 91.6692 44.1203 91.6692Z" fill="#34A853"/>
<path fill-rule="evenodd" clip-rule="evenodd" d="M19.4358 54.5452C18.5532 51.7952 18.0504 48.8543 18.0504 45.8346C18.0504 42.8149 18.5532 39.8777 19.4358 37.1277V25.2513H4.69164C1.70374 31.4368 0 38.439 0 45.8346C0 53.234 1.70374 60.2324 4.69164 66.4216L19.4358 54.5452Z" fill="#FBBC05"/>
<path fill-rule="evenodd" clip-rule="evenodd" d="M44.1203 18.2305C50.5989 18.2305 56.4155 20.542 60.9842 25.0866L73.6448 11.9401C66.0014 4.54455 56.014 0 44.1203 0C26.873 0 11.9516 10.2729 4.69165 25.2514L19.4322 37.1278C22.9048 26.2929 32.6281 18.2305 44.1203 18.2305Z" fill="#EA4335"/>
</svg>
