<svg width="77" height="84" viewBox="0 0 77 84" fill="none" xmlns="http://www.w3.org/2000/svg">
<path d="M55.4622 55.3248C57.9394 53.9964 60.778 53.2406 63.8002 53.2406H63.8117C64.1177 53.2406 64.2606 52.8743 64.0362 52.668C60.8946 49.8542 57.3041 47.5839 53.4106 45.9445C53.3698 45.9242 53.3291 45.9125 53.2883 45.8922C59.6502 41.2849 63.7914 33.7942 63.7914 25.3442C63.7914 11.3422 52.4373 0 38.4341 0C24.4279 0 13.0854 11.3422 13.0854 25.3442C13.0854 33.7942 17.2237 41.2849 23.5973 45.8922C23.5565 45.9125 23.5155 45.9242 23.4747 45.9445C18.8934 47.8746 14.7873 50.6448 11.2522 54.1824C7.73756 57.6792 4.93975 61.8273 3.01339 66.3938C1.11909 70.8644 0.0961722 75.6547 0 80.5061C0 80.6137 0.0175428 80.7241 0.0583431 80.8259C0.0991435 80.9276 0.157423 81.0178 0.233195 81.0962C0.311881 81.1747 0.402166 81.2386 0.501253 81.2793C0.603254 81.3229 0.711218 81.3432 0.821962 81.3432H6.95937C7.39943 81.3432 7.76665 80.9857 7.77831 80.5468C7.98231 72.6578 11.1473 65.2687 16.7544 59.6703C22.5423 53.8742 30.2477 50.6855 38.4428 50.6855C44.251 50.6855 49.826 52.29 54.6317 55.2957C54.7542 55.3712 54.8969 55.4148 55.0426 55.4206C55.1884 55.4265 55.3311 55.3945 55.4622 55.3248ZM38.4428 42.9186C33.7507 42.9186 29.3355 41.0903 26.0045 37.7707C24.3666 36.14 23.0668 34.2012 22.1837 32.0705C21.2978 29.937 20.8461 27.6522 20.852 25.3442C20.852 20.6526 22.6851 16.2373 26.0045 12.9177C29.3239 9.59527 33.7391 7.7669 38.4428 7.7669C43.1465 7.7669 47.5529 9.59527 50.8811 12.9177C52.5189 14.5455 53.8186 16.4843 54.7017 18.615C55.5876 20.7486 56.0394 23.0362 56.0336 25.3442C56.0336 30.0328 54.2005 34.4483 50.8811 37.7707C47.5529 41.0903 43.1348 42.9186 38.4428 42.9186ZM76.1276 67.2426H67.5188V58.6559C67.5188 58.2083 67.1516 57.8391 66.6999 57.8391H60.9616C60.5128 57.8391 60.1427 58.2083 60.1427 58.6559V67.2426H51.5367C51.085 67.2426 50.7178 67.6088 50.7178 68.0594V73.7828C50.7178 74.2304 51.085 74.5996 51.5367 74.5996H60.1427V83.1833C60.1427 83.6339 60.5128 84 60.9616 84H66.6999C67.1516 84 67.5188 83.6339 67.5188 83.1833V74.5996H76.1276C76.5764 74.5996 76.9466 74.2304 76.9466 73.7828V68.0594C76.9466 67.6088 76.5764 67.2426 76.1276 67.2426Z" fill="white"/>
</svg>
