<svg width="170" height="202" viewBox="0 0 170 202" fill="none" xmlns="http://www.w3.org/2000/svg">
<path fill-rule="evenodd" clip-rule="evenodd" d="M82.0886 0.0902497C79.0234 0.55664 73.4529 3.50675 54.2672 14.824C38.4763 24.139 27.7426 30.3414 20.2139 34.5018C12.9282 38.5281 8.26225 41.4397 6.46921 43.0796C3.67773 45.6323 1.75383 48.5355 0.846186 51.5657C-0.0552264 54.5734 -0.0685779 55.3269 0.0560618 95.6785L0.182481 136.732L1.60071 139.708C2.40107 141.387 3.88695 143.522 5.01183 144.609C7.25044 146.772 25.4381 158.944 32.1655 162.782C34.5768 164.157 36.9263 165.729 37.3866 166.273C38.1709 167.202 38.2225 168.228 38.2123 182.624C38.203 195.603 38.3076 198.187 38.8871 199.301C39.7645 200.988 41.2264 202 42.7861 202C44.1999 202 50.752 198.683 56.6643 194.974C58.8958 193.574 62.9684 191.077 65.7141 189.425C71.5828 185.894 72.117 185.852 78.3436 188.423C87.0057 192 88.1541 191.628 112.803 177.242C117.945 174.242 126.158 169.401 131.054 166.486C135.951 163.571 143.763 158.988 148.415 156.303C158.519 150.47 160.043 149.476 163.644 146.371C167.109 143.384 168.933 139.928 169.547 135.183C170.176 130.325 170.139 57.4992 169.506 53.8003C168.222 46.3009 164.872 42.9154 151.753 35.858C146.398 32.9769 140.64 29.6445 126.825 21.4314C123.275 19.3207 117.767 16.194 114.584 14.4829C111.401 12.7722 106.494 10.0318 103.678 8.39324C96.574 4.259 91.7153 1.68589 89.6289 0.954444C87.5247 0.216362 83.9515 -0.192947 82.0886 0.0902497ZM82.3112 16.779C81.2095 17.0626 78.7055 18.3113 76.7469 19.5539C74.7883 20.7964 70.0809 23.6027 66.2861 25.7908C62.4912 27.9785 55.3801 32.1035 50.4835 34.9567C45.587 37.8099 39.2771 41.4848 36.4616 43.1229C33.646 44.761 28.1659 47.7753 24.2834 49.821C17.166 53.5711 16.1341 54.4123 15.1629 57.2593C14.4328 59.3983 14.4328 130.434 15.1629 132.573C16.2784 135.842 16.1346 135.737 37.797 149.113C48.8027 155.909 51.5479 157.86 52.0264 159.225C52.2904 159.978 52.4867 164.773 52.4867 170.466V180.393L54.3785 179.323C55.4188 178.734 59.4625 176.314 63.3642 173.946C68.7735 170.662 70.8385 169.635 72.0604 169.618C73.1675 169.603 75.3714 170.447 79.1867 172.349C83.8095 174.652 84.9807 175.065 86.3673 174.88C87.3591 174.748 90.6727 173.102 94.6269 170.775C98.2584 168.639 102.632 166.092 104.346 165.114C109.019 162.447 128.246 151.153 136.841 146.027C141.003 143.544 145.75 140.782 147.389 139.889C151.263 137.778 152.905 136.371 154.11 134.132L155.092 132.307L155.227 96.4648C155.301 76.7517 155.237 59.5753 155.083 58.2952C154.699 55.0893 153.44 53.7787 148.042 50.9644C145.554 49.6674 139.111 46.0646 133.725 42.9583C115.778 32.6079 94.8909 20.8628 90.1012 18.429C85.8941 16.2909 84.9673 16.0944 82.3112 16.779ZM82.5338 37.9882C81.3096 38.555 77.8041 40.5153 74.7438 42.345C71.6834 44.1743 65.2734 47.9267 60.4992 50.6838C55.7251 53.441 50.7172 56.4283 49.3707 57.3226C48.0241 58.2169 45.0693 59.9846 42.8048 61.252C40.5404 62.5188 38.6873 63.6268 38.6873 63.714C38.6873 63.8012 39.8388 64.4574 41.2468 65.1729C42.6548 65.888 47.4543 68.4425 51.9129 70.8492C61.7461 76.1574 75.6714 83.4617 81.4178 86.3255L85.6435 88.4318L97.8555 82.2709C104.572 78.8823 113.187 74.3489 117 72.1962C120.812 70.0435 125.813 67.2734 128.111 66.0402C132.902 63.4711 132.961 63.8428 127.271 60.7488C125.434 59.7501 119.725 56.5062 114.584 53.5393C109.443 50.5723 103.138 46.9961 100.572 45.5916C98.0073 44.1876 93.5408 41.6684 90.6465 39.994C87.7521 38.3192 85.2438 36.951 85.072 36.9537C84.9001 36.9559 83.7579 37.4214 82.5338 37.9882ZM33.4359 98.5291C33.5414 118.061 33.6901 123.25 34.1713 124.177C34.5648 124.936 36.19 126.078 38.8453 127.461C41.0844 128.627 44.8191 130.712 47.145 132.095C49.4708 133.477 56.3817 137.556 62.5024 141.159C68.6231 144.762 74.8831 148.479 76.413 149.419L79.1952 151.127V126.383V101.639L71.9616 97.3025C67.9834 94.9174 61.6232 91.1257 57.8284 88.8769C54.0335 86.6277 47.7325 82.8351 43.826 80.4487C39.9194 78.0624 35.9537 75.645 35.0135 75.0768L33.3033 74.0436L33.4359 98.5291ZM125.92 80.3686C120.175 83.8059 111.869 88.7221 107.462 91.2934C103.055 93.8652 97.6463 97.0985 95.4429 98.4791L91.4366 100.989L91.3217 126.311L91.2069 151.632L92.6572 150.755C93.4549 150.273 98.915 147.003 104.791 143.488C110.667 139.974 117.477 135.899 119.926 134.433C122.374 132.967 126.435 130.63 128.95 129.24C131.466 127.851 133.992 126.212 134.564 125.599C136.57 123.448 136.724 121.228 136.554 96.841C136.467 84.3436 136.389 74.1188 136.381 74.1188C136.373 74.1188 131.666 76.9313 125.92 80.3686Z" fill="black"/>
</svg>
