<svg width="183" height="219" viewBox="0 0 183 219" fill="none" xmlns="http://www.w3.org/2000/svg">
<path fill-rule="evenodd" clip-rule="evenodd" d="M88.6596 0.434648C84.6618 1.11361 88.6427 -1.08757 33.5052 30.9274C18.8827 39.4181 6.65929 46.83 5.62874 47.8322C3.20451 50.1885 1.01128 54.7629 0.456698 58.6181C-0.17986 63.0437 -0.138387 144.737 0.502512 148.706C1.14389 152.679 3.34629 156.85 6.20164 159.499C7.5196 160.722 15.1617 165.405 24.9227 170.971L41.4168 180.377L41.5601 197.384L41.7033 214.39L42.5554 215.956C44.264 219.098 48.7117 219.94 52.6024 217.859C53.769 217.235 59.9002 213.418 66.2272 209.378C72.5537 205.337 77.7928 202.032 77.869 202.032C77.9452 202.032 80.0106 203.221 82.4585 204.675C89.2287 208.695 93.9821 209.27 99.4936 206.734C100.868 206.102 116.934 196.598 135.195 185.617C153.457 174.635 170.084 164.672 172.145 163.477C176.6 160.895 179.934 157.476 181.708 153.674L183 150.903V103.652V56.4009L181.667 53.6744C180.934 52.1745 179.307 49.9864 178.05 48.8121C176.794 47.6374 170.775 43.7555 164.675 40.1848C158.574 36.6145 142.069 26.8881 127.997 18.5709C113.924 10.2537 101.477 2.97071 100.337 2.38625C98.4862 1.43735 92.6241 -0.118799 91.3741 0.00720393C91.1089 0.0338585 89.8874 0.226258 88.6596 0.434648ZM87.7573 17.7228C87.0836 18.0087 26.7987 52.5181 19.6784 56.6932L16.4608 58.5798L15.8204 60.3981L15.18 62.2165V103.894V145.572L15.7939 147.31C16.1315 148.266 16.9995 149.6 17.7229 150.276C18.4462 150.951 26.3077 155.706 35.193 160.84C53.7723 171.576 53.7396 171.555 54.8516 173.598L55.6883 175.135L55.9294 187.002L56.1705 198.869L56.9469 199.019C57.3742 199.102 61.1718 196.613 65.3862 193.49C75.8571 185.729 76.129 185.554 77.7209 185.554C78.5509 185.554 80.7783 186.555 83.1741 188.004C85.4016 189.351 87.9396 190.66 88.8139 190.912C91.5015 191.686 94.8718 191.45 97.0598 190.334C100.817 188.416 121.29 176.323 154.291 156.527L166.09 149.449L167.198 147.791L168.307 146.133L168.179 103.604L168.051 61.0756L167.042 59.7075C166.374 58.8018 154.076 51.4723 130.632 38.0088L95.2321 17.6782L91.8564 17.5469C89.9998 17.4746 88.1552 17.5541 87.7573 17.7228ZM87.2751 42.4441C84.7607 43.7657 47.2621 65.3946 44.9531 66.8553C43.5662 67.7325 43.1032 69.1684 43.9443 69.985C44.5635 70.5865 69.4939 84.6392 84.2741 92.718L91.1591 96.4811L92.3087 96.1913C94.9013 95.5375 138.3 70.3887 139.074 69.0919L139.598 68.2137L138.546 67.3448C137.967 66.867 127.94 60.8687 116.264 54.0151L95.0339 41.5543L92.4809 41.3023L89.9274 41.0503L87.2751 42.4441ZM122.238 95.8453L99.09 109.376V136.197V163.019L100.208 163.178C100.967 163.286 107.775 159.648 121.426 151.838C146.281 137.619 146.471 137.499 147.348 135.387L148.046 133.71L147.921 108.14L147.796 82.5708L146.591 82.4424L145.385 82.3145L122.238 95.8453ZM36.254 83.8793L35.6753 84.4609V109.589V134.716L36.4121 136.149C37.3332 137.939 36.8389 137.633 60.0285 150.753C83.5343 164.052 82.2921 163.407 83.7142 163.048L84.8721 162.756L84.7472 135.772L84.6228 108.787L81.4882 107.034C57.8405 93.803 38.4819 83.2978 37.7489 83.2978C37.245 83.2978 36.5722 83.5595 36.254 83.8793Z" fill="white"/>
</svg>
