<svg width="87" height="88" viewBox="0 0 87 88" fill="none" xmlns="http://www.w3.org/2000/svg">
<circle cx="43.4033" cy="44" r="43.0483" fill="white" fill-opacity="0.23"/>
<path d="M60.3919 43.9896C60.3919 45.9268 60.0691 47.7917 59.4783 49.5297L56.6826 46.7339C56.866 45.8307 56.958 44.9113 56.9573 43.9896V40.555C56.9573 40.0996 57.1383 39.6628 57.4603 39.3407C57.7824 39.0187 58.2192 38.8377 58.6746 38.8377C59.1301 38.8377 59.5669 39.0187 59.889 39.3407C60.211 39.6628 60.3919 40.0996 60.3919 40.555V43.9896ZM43.2189 57.7281C46.0284 57.7281 48.6387 56.8866 50.8163 55.4372L53.2823 57.9067C50.8284 59.6807 47.9491 60.7744 44.9362 61.0768V68.0319H55.24C55.6955 68.0319 56.1323 68.2128 56.4544 68.5349C56.7764 68.8569 56.9573 69.2937 56.9573 69.7492C56.9573 70.2046 56.7764 70.6414 56.4544 70.9635C56.1323 71.2855 55.6955 71.4665 55.24 71.4665H31.1978C30.7423 71.4665 30.3055 71.2855 29.9835 70.9635C29.6614 70.6414 29.4805 70.2046 29.4805 69.7492C29.4805 69.2937 29.6614 68.8569 29.9835 68.5349C30.3055 68.2128 30.7423 68.0319 31.1978 68.0319H41.5016V61.0768C37.2657 60.6511 33.3389 58.6671 30.483 55.5098C27.6271 52.3525 26.0458 48.2469 26.0459 43.9896V40.555C26.0459 40.0996 26.2268 39.6628 26.5489 39.3407C26.8709 39.0187 27.3077 38.8377 27.7632 38.8377C28.2187 38.8377 28.6555 39.0187 28.9775 39.3407C29.2996 39.6628 29.4805 40.0996 29.4805 40.555V43.9896C29.4805 47.6333 30.9279 51.1277 33.5044 53.7042C36.0808 56.2806 39.5753 57.7281 43.2189 57.7281ZM53.5227 26.8166V43.5741L33.4578 23.5091C34.2441 21.1984 35.8249 19.2418 37.9188 17.9875C40.0126 16.7332 42.4836 16.2627 44.8919 16.6597C47.3002 17.0567 49.4895 18.2954 51.07 20.1554C52.6505 22.0153 53.5196 24.3758 53.5227 26.8166Z" fill="white"/>
<path d="M48.3228 52.9436L32.9152 37.5325V43.9896C32.9146 45.7938 33.3879 47.5666 34.2876 49.1306C35.1872 50.6945 36.4818 51.9948 38.0418 52.9014C39.6017 53.8079 41.3724 54.289 43.1766 54.2964C44.9809 54.3038 46.7554 53.8373 48.3228 52.9436ZM21.3955 21.1632L62.6108 62.3785L65.0425 59.9468L23.8272 18.7315L21.3955 21.1632Z" fill="white"/>
</svg>
