<svg width="44" height="45" viewBox="0 0 44 45" fill="none" xmlns="http://www.w3.org/2000/svg">
<path d="M21.8222 40.4123C19.318 40.4123 16.9647 39.9369 14.7622 38.9859C12.5597 38.0349 10.6438 36.7454 9.01461 35.1173C7.38538 33.4893 6.09587 31.5735 5.14609 29.3698C4.19631 27.1661 3.72081 24.8127 3.71961 22.3098C3.7184 19.8068 4.19389 17.4534 5.14609 15.2498C6.09829 13.0461 7.38779 11.1302 9.01461 9.50219C10.6414 7.87416 12.5573 6.58466 14.7622 5.63367C16.9671 4.68268 19.3204 4.20718 21.8222 4.20718C24.324 4.20718 26.6773 4.68268 28.8822 5.63367C31.0871 6.58466 33.0029 7.87416 34.6298 9.50219C36.2566 11.1302 37.5467 13.0461 38.5001 15.2498C39.4535 17.4534 39.9284 19.8068 39.9248 22.3098C39.9211 24.8127 39.4457 27.1661 38.4983 29.3698C37.5509 31.5735 36.2614 33.4893 34.6298 35.1173C32.9981 36.7454 31.0823 38.0355 28.8822 38.9877C26.6821 39.9399 24.3288 40.4148 21.8222 40.4123ZM21.8222 36.7918C25.8651 36.7918 29.2895 35.3889 32.0954 32.583C34.9013 29.7771 36.3043 26.3527 36.3043 22.3098C36.3043 22.0986 36.297 21.8795 36.2825 21.6526C36.268 21.4258 36.2602 21.2375 36.259 21.0878C36.1081 21.9628 35.7008 22.6869 35.0371 23.2602C34.3733 23.8334 33.5889 24.12 32.6837 24.12H29.0632C28.0676 24.12 27.2155 23.7658 26.5071 23.0574C25.7987 22.349 25.4439 21.4964 25.4427 20.4995V18.6892H18.2017V15.0687C18.2017 14.0731 18.5565 13.2211 19.2661 12.5126C19.9757 11.8042 20.8278 11.4494 21.8222 11.4482H23.6324C23.6324 10.7543 23.8213 10.1436 24.1991 9.61624C24.5768 9.08885 25.0366 8.65861 25.5785 8.32552C24.9751 8.17467 24.3644 8.05398 23.7465 7.96347C23.1286 7.87296 22.4872 7.8277 21.8222 7.8277C17.7793 7.8277 14.3549 9.23065 11.549 12.0366C8.74307 14.8425 7.34012 18.2669 7.34012 22.3098H16.3914C18.3827 22.3098 20.0874 23.0188 21.5054 24.4368C22.9234 25.8549 23.6324 27.5595 23.6324 29.5508V31.3611H18.2017V36.3393C18.8051 36.4901 19.4013 36.6036 19.9902 36.6796C20.5791 36.7556 21.1898 36.793 21.8222 36.7918Z" fill="white"/>
</svg>
