<svg width="100" height="100" viewBox="0 0 100 100" fill="none" xmlns="http://www.w3.org/2000/svg">
<path d="M92.857 57.1449H57.143V92.8551C57.143 94.7501 56.3905 96.57 55.051 97.91C53.711 99.245 51.8945 100 50 100C48.1055 100 46.289 99.245 44.949 97.91C43.6095 96.57 42.857 94.7501 42.857 92.8551V57.1449H7.143C5.2485 57.1449 3.4315 56.39 2.092 55.05C0.752499 53.71 0 51.895 0 50C0 48.105 0.752499 46.29 2.092 44.95C3.4315 43.61 5.2485 42.8551 7.143 42.8551H42.857V7.14493C42.857 5.24993 43.6095 3.43 44.949 2.09C46.289 0.754996 48.1055 0 50 0C51.8945 0 53.711 0.754996 55.051 2.09C56.3905 3.43 57.143 5.24993 57.143 7.14493V42.8551H92.857C94.7515 42.8551 96.5685 43.61 97.908 44.95C99.2475 46.29 100 48.105 100 50C100 51.895 99.2475 53.71 97.908 55.05C96.5685 56.39 94.7515 57.1449 92.857 57.1449Z" fill="#FBFBFB"/>
</svg>
