<svg width="69" height="70" viewBox="0 0 69 70" fill="none" xmlns="http://www.w3.org/2000/svg">
<mask id="mask0_106_280" style="mask-type:luminance" maskUnits="userSpaceOnUse" x="17" y="17" width="35" height="35">
<path d="M30.3448 48.2299C27.9709 47.5212 25.8209 46.2098 24.1042 44.4236C24.6565 43.7685 25.0009 42.9634 25.0931 42.1115C25.1853 41.2596 25.0213 40.3995 24.6219 39.6414C24.2226 38.8832 23.6061 38.2615 22.8514 37.8556C22.0967 37.4498 21.238 37.2785 20.3854 37.3634C20.1911 36.4119 20.0935 35.4432 20.094 34.472C20.094 32.9722 20.3236 31.5254 20.7514 30.1662H20.8116C21.5435 30.1664 22.2633 29.9801 22.9031 29.6249C23.5429 29.2697 24.0816 28.7572 24.4684 28.136C24.8552 27.5147 25.0772 26.8051 25.1136 26.0742C25.1499 25.3433 24.9994 24.6151 24.6761 23.9586C26.3587 22.3918 28.3936 21.2529 30.6089 20.638C30.9694 21.3459 31.5188 21.9403 32.1961 22.3553C32.8735 22.7704 33.6524 22.9899 34.4468 22.9897C35.2413 22.9899 36.0202 22.7704 36.6976 22.3553C37.3749 21.9403 37.9243 21.3459 38.2848 20.638C40.5001 21.2529 42.535 22.3918 44.2176 23.9586C43.892 24.6197 43.7416 25.3534 43.7807 26.0894C43.8198 26.8253 44.0472 27.5389 44.441 28.1618C44.8349 28.7847 45.382 29.2961 46.0301 29.6471C46.6781 29.998 47.4054 30.1768 48.1423 30.1662C48.5793 31.5596 48.801 33.0116 48.7997 34.472C48.7997 35.4624 48.6992 36.4298 48.5083 37.3641C47.6557 37.2792 46.797 37.4506 46.0423 37.8564C45.2876 38.2622 44.6711 38.8839 44.2718 39.6421C43.8724 40.4002 43.7084 41.2603 43.8006 42.1122C43.8928 42.9641 44.2372 43.7692 44.7895 44.4243C43.0727 46.2103 40.9227 47.5214 38.5489 48.2299C38.2701 47.3611 37.7227 46.6032 36.9855 46.0655C36.2482 45.5278 35.3593 45.2381 34.4468 45.2381C33.5344 45.2381 32.6455 45.5278 31.9082 46.0655C31.171 46.6032 30.6236 47.3611 30.3448 48.2299Z" fill="white" stroke="white" stroke-width="5.74114" stroke-linejoin="round"/>
<path d="M34.4468 39.4953C35.1065 39.4953 35.7598 39.3654 36.3692 39.1129C36.9787 38.8605 37.5325 38.4904 37.999 38.0239C38.4655 37.5575 38.8355 37.0037 39.0879 36.3942C39.3404 35.7847 39.4703 35.1315 39.4703 34.4718C39.4703 33.8121 39.3404 33.1589 39.0879 32.5494C38.8355 31.9399 38.4655 31.3861 37.999 30.9197C37.5325 30.4532 36.9787 30.0831 36.3692 29.8307C35.7598 29.5782 35.1065 29.4483 34.4468 29.4483C33.1145 29.4483 31.8368 29.9776 30.8947 30.9197C29.9526 31.8617 29.4233 33.1395 29.4233 34.4718C29.4233 35.8041 29.9526 37.0819 30.8947 38.0239C31.8368 38.966 33.1145 39.4953 34.4468 39.4953Z" fill="black" stroke="black" stroke-width="5.74114" stroke-linejoin="round"/>
</mask>
<g mask="url(#mask0_106_280)">
<path d="M17.2233 17.2488H51.6701V51.6956H17.2233V17.2488Z" fill="white"/>
</g>
</svg>
