<svg width="99" height="103" viewBox="0 0 99 103" fill="none" xmlns="http://www.w3.org/2000/svg">
<mask id="mask0_27_216" style="mask-type:luminance" maskUnits="userSpaceOnUse" x="0" y="0" width="99" height="103">
<path d="M98.6207 0H0V102.143H98.6207V0Z" fill="white"/>
</mask>
<g mask="url(#mask0_27_216)">
<path fill-rule="evenodd" clip-rule="evenodd" d="M49.3103 0C22.0653 0 0 22.8534 0 51.0714C0 73.6717 14.1157 92.7591 33.7154 99.5272C36.181 99.9713 37.1071 98.4391 37.1071 97.098C37.1071 95.8856 37.0428 91.8663 37.0428 87.5852C24.6552 89.9478 21.4521 84.4588 20.4659 81.5855C19.9085 80.12 17.503 75.5858 15.4105 74.3734C13.6825 73.4141 11.217 71.0514 15.3462 70.9892C19.231 70.9271 22.0053 74.6931 22.9272 76.2252C27.3694 83.9481 34.4572 81.7765 37.2915 80.4398C37.7246 77.1179 39.0152 74.8841 40.4345 73.6051C29.4618 72.3305 18.0004 67.925 18.0004 48.3891C18.0004 42.8378 19.9085 38.2414 23.0515 34.6664C22.5584 33.3874 20.8347 28.1514 23.5446 21.1302C23.5446 21.1302 27.6739 19.7891 37.1071 26.3662C41.052 25.216 45.2412 24.6431 49.4347 24.6431C53.624 24.6431 57.8175 25.216 61.7623 26.3662C71.1913 19.7269 75.3205 21.1302 75.3205 21.1302C78.0347 28.1514 76.3067 33.3874 75.8136 34.6664C78.9566 38.2414 80.869 42.7712 80.869 48.3891C80.869 67.9872 69.3432 72.3305 58.3706 73.6051C60.1586 75.2038 61.698 78.2681 61.698 83.0555C61.698 89.8857 61.6379 95.3749 61.6379 97.098C61.6379 98.4391 62.5641 100.038 65.0296 99.5272C84.5051 92.7591 98.6207 73.605 98.6207 51.0714C98.6207 22.8534 76.5554 0 49.3103 0Z" fill="white"/>
</g>
</svg>
