<svg width="52" height="58" viewBox="0 0 52 58" fill="none" xmlns="http://www.w3.org/2000/svg">
<path d="M50.5102 11.0435L26.2539 0.129C26.0753 0.0440469 25.8805 0 25.6831 0C25.4858 0 25.291 0.0440469 25.1124 0.129L0.856105 11.0435C0.605292 11.1542 0.391231 11.3355 0.239442 11.5659C0.0876521 11.7963 0.00453565 12.066 0 12.3428V20.0811C0 34.2873 8.38983 51.4963 25.1695 57.4444C25.5026 57.5588 25.8637 57.5588 26.1968 57.4444C42.9765 51.4963 51.3663 34.2873 51.3663 20.0811V12.3428C51.3618 12.066 51.2786 11.7963 51.1269 11.5659C50.9751 11.3355 50.761 11.1542 50.5102 11.0435ZM39.0612 20.6009L23.9938 40.0102C23.7748 40.29 23.4999 40.5199 23.1872 40.6851C22.8745 40.8503 22.5309 40.9469 22.1788 40.9688L22.0304 40.9746C21.3669 40.9734 20.7309 40.7066 20.2612 40.2325L12.4991 32.3787C12.031 31.9039 11.7685 31.2604 11.7693 30.5897C11.7701 29.9191 12.0342 29.2762 12.5034 28.8026C12.9727 28.329 13.6086 28.0633 14.2714 28.0641C14.9342 28.065 15.5696 28.3321 16.0377 28.8069L21.8078 34.6453L35.1345 17.4796C35.5512 16.9744 36.1459 16.6533 36.7927 16.5846C37.4394 16.5158 38.0871 16.7047 38.5984 17.1112C39.1097 17.5178 39.4444 18.1099 39.5313 18.7619C39.6182 19.414 39.4506 20.0747 39.0641 20.6038L39.0612 20.6009Z" fill="white"/>
</svg>
